<?xml version="1.0" standalone="no"?>
<!DOCTYPE svg PUBLIC "-//W3C//DTD SVG 20010904//EN"
 "http://www.w3.org/TR/2001/REC-SVG-20010904/DTD/svg10.dtd">
<svg version="1.0" xmlns="http://www.w3.org/2000/svg"
 width="500.000000pt" height="500.000000pt" viewBox="0 0 500.000000 500.000000"
 preserveAspectRatio="xMidYMid meet">

<g transform="translate(0.000000,500.000000) scale(0.100000,-0.100000)"
fill="#000000" stroke="none">
<path d="M280 2549 c0 -120 0 -121 29 -150 l29 -29 221 0 221 0 0 25 0 25
-213 0 c-152 0 -216 3 -225 12 -8 8 -12 50 -12 125 l0 113 -25 0 -25 0 0 -121z"/>
<path d="M857 2663 c-4 -3 -7 -15 -7 -25 0 -16 9 -18 90 -18 l90 0 0 -100 0
-100 -90 0 c-89 0 -90 0 -90 -25 l0 -25 200 0 200 0 0 25 c0 25 -1 25 -85 25
l-85 0 0 100 0 100 85 0 c84 0 85 0 85 25 l0 25 -193 0 c-107 0 -197 -3 -200
-7z"/>
<path d="M1370 2657 c-33 -17 -53 -60 -45 -97 12 -55 31 -60 232 -60 170 0
184 -1 203 -20 16 -16 18 -25 10 -40 -10 -18 -24 -20 -223 -22 -211 -3 -212
-3 -215 -25 l-3 -23 221 0 221 0 24 25 c34 33 34 93 2 123 -22 21 -32 22 -206
22 -186 0 -221 6 -221 38 0 39 17 42 232 42 l208 0 0 25 0 25 -207 0 c-148 0
-215 -4 -233 -13z"/>
<path d="M1897 2663 c-4 -3 -7 -15 -7 -25 0 -16 10 -18 125 -18 l125 0 0 -125
0 -125 25 0 25 0 0 125 0 125 120 0 120 0 0 25 0 25 -263 0 c-145 0 -267 -3
-270 -7z"/>
<path d="M2529 2641 c-28 -28 -29 -34 -29 -115 0 -95 11 -129 47 -145 15 -7
103 -11 238 -11 l215 0 0 25 0 25 -213 0 c-229 0 -237 2 -237 52 l0 28 225 0
c218 0 225 1 225 20 0 19 -7 20 -225 20 l-225 0 0 28 c0 50 8 52 237 52 l213
0 0 25 0 25 -221 0 -221 0 -29 -29z"/>
<path d="M3120 2657 c-40 -20 -50 -53 -50 -174 l0 -113 25 0 25 0 0 113 c0 75
4 117 12 125 8 8 66 12 195 12 170 0 183 -1 193 -19 5 -11 10 -67 10 -125 0
-99 1 -106 20 -106 19 0 20 7 20 119 0 66 -3 127 -6 136 -15 37 -56 45 -241
45 -123 0 -186 -4 -203 -13z"/>
<path d="M3692 2660 c-37 -16 -55 -73 -50 -164 4 -71 8 -82 32 -103 27 -23 31
-23 252 -23 l224 0 0 25 0 25 -220 0 -220 0 -12 24 c-24 55 -19 56 227 56 218
0 225 1 225 20 0 19 -7 20 -225 20 -246 0 -251 1 -227 56 l12 24 220 0 220 0
0 25 0 25 -217 -1 c-120 0 -228 -4 -241 -9z"/>
<path d="M4217 2664 c-4 -4 -7 -72 -7 -151 l0 -143 25 0 c23 0 24 4 27 63 l3
62 167 0 c153 0 169 -2 195 -21 18 -13 31 -35 37 -62 8 -35 14 -42 34 -42 22
0 23 2 17 42 -4 24 -14 52 -21 63 -12 18 -11 26 7 62 23 46 19 81 -13 110 -18
16 -44 18 -242 21 -122 2 -225 0 -229 -4z m443 -59 c16 -19 3 -54 -23 -60 -12
-3 -101 -4 -197 -3 l-175 3 -3 38 -3 37 194 0 c158 0 197 -3 207 -15z"/>
</g>
</svg>
